<svg xmlns="http://www.w3.org/2000/svg" xmlns:xlink="http://www.w3.org/1999/xlink" width="1000" zoomAndPan="magnify" viewBox="0 0 750 749.999995" height="1000" preserveAspectRatio="xMidYMid meet" version="1.0"><defs><g/><clipPath id="1f3007a331"><path d="M 112.5 388.378906 L 465.960938 388.378906 L 465.960938 518.367188 L 112.5 518.367188 Z M 112.5 388.378906 " clip-rule="nonzero"/></clipPath><clipPath id="3eedd2e09f"><path d="M 446 273.117188 L 637.5 273.117188 L 637.5 445 L 446 445 Z M 446 273.117188 " clip-rule="nonzero"/></clipPath><clipPath id="96b61bc3e6"><path d="M 620.386719 221.695312 L 636.886719 221.695312 L 636.886719 238.195312 L 620.386719 238.195312 Z M 620.386719 221.695312 " clip-rule="nonzero"/></clipPath></defs><g fill="#ffbd59" fill-opacity="1"><g transform="translate(143.937007, 287.103316)"><g><path d="M 18.96875 -48.789062 C 27.929688 -48.789062 36.1875 -43.957031 40.597656 -36.117188 L 39.617188 -49 L 1.398438 -49 C 2.171875 -48.367188 2.660156 -46.828125 2.660156 -43.1875 L 2.660156 -5.808594 C 2.660156 -2.171875 2.171875 -0.628906 1.398438 0 L 19.738281 0 C 18.898438 -0.628906 18.480469 -2.171875 18.480469 -5.808594 L 18.480469 -24.359375 C 19.320312 -24.359375 31.289062 -24.21875 34.296875 -17.289062 L 34.296875 -31.707031 C 31.289062 -24.777344 19.320312 -24.640625 18.480469 -24.640625 L 18.480469 -48.789062 Z M 18.96875 -48.789062 "/></g></g></g><g fill="#ffbd59" fill-opacity="1"><g transform="translate(185.934716, 287.103316)"><g><path d="M 46.476562 -6.578125 L 43.957031 -15.890625 L 41.019531 -26.527344 C 37.589844 -39.199219 21.417969 -42.976562 12.738281 -33.109375 C 16.03125 -36.820312 22.1875 -35.347656 23.519531 -30.519531 L 25.410156 -23.800781 L 24.429688 -23.800781 C 24.429688 -23.800781 0.769531 -24.078125 1.46875 -10.710938 C 2.238281 3.078125 21.839844 5.179688 27.929688 -7.210938 C 28.488281 -8.328125 28.839844 -9.519531 28.980469 -10.78125 L 29.609375 -8.46875 C 31.148438 -2.589844 36.957031 0.980469 42.839844 -0.210938 C 45.988281 -0.910156 48.648438 -2.871094 50.046875 -5.738281 C 49.277344 -4.269531 46.898438 -4.96875 46.476562 -6.578125 Z M 24.359375 -5.601562 C 24.148438 -5.53125 23.9375 -5.53125 23.730469 -5.53125 C 20.300781 -5.53125 17.429688 -8.191406 17.21875 -11.550781 C 16.871094 -16.9375 20.371094 -22.257812 25.410156 -23.589844 L 28.558594 -12.179688 C 28.980469 -10.710938 28.769531 -9.167969 27.929688 -7.910156 C 27.160156 -6.648438 25.828125 -5.808594 24.359375 -5.601562 Z M 24.359375 -5.601562 "/></g></g></g><g fill="#ffbd59" fill-opacity="1"><g transform="translate(237.381902, 287.103316)"><g><path d="M 33.738281 -39.828125 C 23.167969 -39.828125 20.4375 -29.679688 20.4375 -29.679688 L 20.4375 -43.1875 C 20.4375 -46.828125 20.929688 -48.367188 21.699219 -49 L 3.359375 -49 C 4.199219 -48.367188 4.621094 -46.828125 4.621094 -43.1875 L 4.621094 -4.761719 C 4.621094 -3.078125 2.589844 -1.820312 1.398438 -3.011719 C 3.359375 -0.839844 6.230469 0.421875 9.167969 0.421875 C 14.628906 0.421875 19.25 -3.5 20.230469 -8.820312 C 22.679688 -4.691406 26.949219 0 33.738281 0 C 42.347656 0 49.347656 -8.890625 49.347656 -19.878906 C 49.347656 -30.867188 42.347656 -39.828125 33.738281 -39.828125 Z M 30.800781 -10.359375 C 29.117188 -8.121094 26.878906 -6.929688 24.570312 -6.929688 L 24.359375 -6.929688 C 22.820312 -7 21.347656 -7.699219 20.300781 -8.960938 C 20.371094 -9.589844 20.4375 -10.21875 20.4375 -10.917969 L 20.4375 -27.789062 C 20.4375 -30.730469 22.75 -32.898438 24.917969 -32.898438 C 29.328125 -32.898438 33.597656 -27.789062 33.597656 -19.878906 C 33.597656 -15.890625 32.480469 -12.597656 30.800781 -10.359375 Z M 30.800781 -10.359375 "/></g></g></g><g fill="#ffbd59" fill-opacity="1"><g transform="translate(288.129134, 287.103316)"><g><path d="M 10.570312 -41.089844 C 12.667969 -41.089844 14.628906 -41.929688 16.167969 -43.398438 C 17.640625 -44.867188 18.480469 -46.898438 18.480469 -49 C 18.480469 -53.339844 14.910156 -56.90625 10.570312 -56.90625 C 6.160156 -56.90625 2.660156 -53.339844 2.660156 -49 C 2.660156 -44.589844 6.160156 -41.089844 10.570312 -41.089844 Z M 18.480469 -5.808594 L 18.480469 -38.5 C 16.378906 -37.449219 14.070312 -36.679688 11.757812 -36.398438 C 5.390625 -35.558594 2.660156 -38.988281 2.660156 -38.988281 L 2.660156 -5.808594 C 2.660156 -2.171875 2.171875 -0.628906 1.398438 0 L 19.738281 0 C 18.898438 -0.628906 18.480469 -2.171875 18.480469 -5.808594 Z M 18.480469 -5.808594 "/></g></g></g><g fill="#ffbd59" fill-opacity="1"><g transform="translate(309.267984, 287.103316)"><g><path d="M 46.476562 -6.578125 L 43.957031 -15.890625 L 41.019531 -26.527344 C 37.589844 -39.199219 21.417969 -42.976562 12.738281 -33.109375 C 16.03125 -36.820312 22.1875 -35.347656 23.519531 -30.519531 L 25.410156 -23.800781 L 24.429688 -23.800781 C 24.429688 -23.800781 0.769531 -24.078125 1.46875 -10.710938 C 2.238281 3.078125 21.839844 5.179688 27.929688 -7.210938 C 28.488281 -8.328125 28.839844 -9.519531 28.980469 -10.78125 L 29.609375 -8.46875 C 31.148438 -2.589844 36.957031 0.980469 42.839844 -0.210938 C 45.988281 -0.910156 48.648438 -2.871094 50.046875 -5.738281 C 49.277344 -4.269531 46.898438 -4.96875 46.476562 -6.578125 Z M 24.359375 -5.601562 C 24.148438 -5.53125 23.9375 -5.53125 23.730469 -5.53125 C 20.300781 -5.53125 17.429688 -8.191406 17.21875 -11.550781 C 16.871094 -16.9375 20.371094 -22.257812 25.410156 -23.589844 L 28.558594 -12.179688 C 28.980469 -10.710938 28.769531 -9.167969 27.929688 -7.910156 C 27.160156 -6.648438 25.828125 -5.808594 24.359375 -5.601562 Z M 24.359375 -5.601562 "/></g></g></g><g fill="#ffbd59" fill-opacity="1"><g transform="translate(360.715171, 287.103316)"><g><path d="M 28.347656 0 L 46.6875 0 C 45.917969 -0.628906 45.429688 -2.171875 45.429688 -5.808594 L 45.429688 -26.808594 C 45.429688 -37.519531 33.25 -43.609375 24.710938 -37.167969 C 22.539062 -35.558594 21.070312 -33.109375 20.648438 -30.378906 L 20.4375 -28.910156 C 20.300781 -35.769531 15.050781 -39.828125 9.167969 -39.828125 C 6.230469 -39.828125 3.359375 -38.570312 1.398438 -36.398438 C 2.589844 -37.589844 4.621094 -36.328125 4.621094 -34.648438 L 4.621094 -5.808594 C 4.621094 -2.171875 4.199219 -0.628906 3.359375 0 L 21.699219 0 C 20.929688 -0.628906 20.4375 -2.171875 20.4375 -5.808594 L 20.4375 -24.777344 C 20.4375 -26.25 20.578125 -27.789062 20.789062 -29.257812 C 21.488281 -34.4375 29.609375 -35.558594 29.609375 -30.449219 L 29.609375 -5.808594 C 29.609375 -2.171875 29.1875 -0.628906 28.347656 0 Z M 28.347656 0 "/></g></g></g><g fill="#ffbd59" fill-opacity="1"><g transform="translate(408.802533, 287.103316)"><g><path d="M 23.589844 -39.828125 L 21.277344 -39.828125 C 10.289062 -39.828125 1.398438 -30.867188 1.398438 -19.878906 C 1.398438 -8.890625 10.289062 0 21.277344 0 L 23.589844 0 C 34.578125 0 43.539062 -8.890625 43.539062 -19.878906 C 43.539062 -30.867188 34.578125 -39.828125 23.589844 -39.828125 Z M 27.71875 -5.460938 C 27.71875 -2.589844 25.339844 -0.210938 22.46875 -0.210938 C 19.53125 -0.210938 17.21875 -2.589844 17.21875 -5.460938 L 17.21875 -34.296875 C 17.21875 -37.238281 19.53125 -39.546875 22.46875 -39.546875 C 25.339844 -39.546875 27.71875 -37.238281 27.71875 -34.296875 Z M 27.71875 -5.460938 "/></g></g></g><g fill="#ffbd59" fill-opacity="1"><g transform="translate(453.740092, 287.103316)"><g/></g></g><g fill="#ffbd59" fill-opacity="1"><g transform="translate(467.739328, 287.103316)"><g><path d="M 25.757812 -0.28125 L 22.46875 -0.210938 C 19.53125 -0.210938 17.21875 -2.589844 17.21875 -5.460938 L 17.21875 -43.539062 C 17.21875 -46.410156 19.53125 -48.789062 22.46875 -48.789062 L 25.6875 -48.71875 C 40.527344 -48.648438 30.167969 -27.300781 30.167969 -27.300781 L 41.789062 -44.097656 C 36.117188 -47.316406 29.75 -49 23.238281 -49 L 22.46875 -49 C 10.851562 -49 1.398438 -39.546875 1.398438 -27.929688 L 1.398438 -21.070312 C 1.398438 -15.46875 3.640625 -10.078125 7.558594 -6.160156 C 11.550781 -2.238281 16.871094 0 22.46875 0 L 23.238281 0 C 36.539062 0 41.789062 -5.601562 41.789062 -5.601562 L 42.769531 -19.738281 C 42.769531 -19.738281 38.570312 -0.28125 25.757812 -0.28125 Z M 25.757812 -0.28125 "/></g></g></g><g fill="#ffbd59" fill-opacity="1"><g transform="translate(511.906928, 287.103316)"><g><path d="M 26.390625 0 L 44.660156 0 C 43.886719 -0.628906 43.46875 -2.171875 43.46875 -5.808594 L 43.46875 -26.808594 C 43.46875 -37.519531 31.289062 -43.609375 22.75 -37.167969 L 19.25 -34.648438 C 19.109375 -34.507812 18.757812 -34.160156 18.480469 -33.878906 L 18.480469 -43.1875 C 18.480469 -46.828125 18.898438 -48.367188 19.738281 -49 L 1.398438 -49 C 2.171875 -48.367188 2.660156 -46.828125 2.660156 -43.1875 L 2.660156 -5.808594 C 2.660156 -2.171875 2.171875 -0.628906 1.398438 0 L 19.738281 0 C 18.898438 -0.628906 18.480469 -2.171875 18.480469 -5.808594 L 18.480469 -33.527344 C 18.6875 -33.808594 18.96875 -34.089844 19.179688 -34.160156 L 19.25 -34.230469 C 20.859375 -35.417969 22.960938 -35.628906 24.777344 -34.71875 C 26.527344 -33.808594 27.648438 -31.988281 27.648438 -30.027344 C 27.648438 -20.230469 27.648438 -5.808594 27.648438 -5.808594 C 27.648438 -2.171875 27.160156 -0.628906 26.390625 0 Z M 26.390625 0 "/></g></g></g><g fill="#ffbd59" fill-opacity="1"><g transform="translate(557.964406, 287.103316)"><g><path d="M 43.46875 -5.179688 L 43.46875 -34.019531 C 43.46875 -37.589844 43.886719 -39.199219 44.660156 -39.828125 L 26.390625 -39.828125 C 27.160156 -39.199219 27.648438 -37.589844 27.648438 -34.019531 L 27.648438 -15.050781 C 27.648438 -13.578125 27.507812 -12.039062 27.300781 -10.570312 C 26.597656 -5.320312 18.480469 -4.269531 18.480469 -9.378906 L 18.480469 -34.019531 C 18.480469 -37.589844 18.898438 -39.199219 19.738281 -39.828125 L 1.398438 -39.828125 C 2.171875 -39.199219 2.660156 -37.589844 2.660156 -34.019531 L 2.660156 -13.019531 C 2.660156 -2.308594 14.839844 3.78125 23.378906 -2.589844 C 25.550781 -4.269531 27.019531 -6.71875 27.4375 -9.449219 L 27.648438 -10.917969 C 27.789062 -4.058594 33.039062 0 38.917969 0 C 41.859375 0 44.726562 -1.261719 46.6875 -3.429688 C 45.5 -2.171875 43.46875 -3.5 43.46875 -5.179688 Z M 43.46875 -5.179688 "/></g></g></g><path fill="#191717" d="M 468.914062 420.597656 L 468.898438 420.539062 L 468.894531 420.542969 Z M 468.914062 420.597656 " fill-opacity="1" fill-rule="nonzero"/><path fill="#191717" d="M 327.773438 453.457031 L 327.78125 453.457031 C 327.765625 453.417969 327.742188 453.371094 327.726562 453.332031 L 327.71875 453.332031 C 327.734375 453.375 327.757812 453.417969 327.773438 453.457031 " fill-opacity="1" fill-rule="nonzero"/><path fill="#191717" d="M 250.738281 477.726562 C 250.738281 477.738281 250.746094 477.746094 250.75 477.75 L 250.742188 477.726562 L 250.738281 477.726562 " fill-opacity="1" fill-rule="nonzero"/><g clip-path="url(#1f3007a331)"><path fill="#191717" d="M 114.734375 495.46875 C 116.003906 498.5625 117.839844 501.449219 120.066406 503.90625 C 122.304688 506.359375 124.886719 508.371094 127.566406 510.007812 C 132.960938 513.257812 138.683594 515.109375 144.3125 516.328125 C 149.960938 517.523438 155.574219 518.082031 161.132812 518.324219 C 166.683594 518.566406 172.191406 518.410156 177.644531 518.078125 C 188.554688 517.394531 199.28125 515.851562 209.851562 513.78125 C 215.128906 512.738281 220.375 511.589844 225.578125 510.296875 C 230.789062 509.023438 235.960938 507.621094 241.09375 506.128906 C 249.117188 503.808594 257.050781 501.253906 264.914062 498.523438 C 270.003906 496.753906 275.066406 494.914062 280.105469 493.015625 C 287.210938 490.339844 294.269531 487.542969 301.285156 484.6875 C 313.023438 479.878906 324.660156 474.878906 336.234375 469.769531 C 340.929688 467.699219 345.613281 465.609375 350.296875 463.511719 C 353.410156 462.117188 356.519531 460.71875 359.621094 459.316406 C 378.910156 450.582031 398.097656 441.640625 417.175781 432.453125 C 429.90625 426.300781 442.730469 420.0625 455.390625 413.722656 C 457.707031 412.566406 461.503906 410.636719 464.03125 409.355469 C 465.71875 408.5 466.039062 406.160156 464.574219 404.960938 C 464.488281 404.890625 464.40625 404.828125 464.320312 404.777344 C 462.074219 403.40625 459.257812 403.367188 456.972656 404.679688 C 455.636719 405.445312 454.207031 406.265625 453.1875 406.855469 C 440.582031 414.15625 427.820312 421.175781 414.871094 427.859375 C 396.136719 437.542969 377.066406 446.589844 357.640625 454.785156 C 356.28125 455.367188 354.917969 455.929688 353.554688 456.492188 C 352.859375 456.789062 352.167969 457.074219 351.472656 457.355469 C 351.164062 457.480469 350.847656 457.605469 350.542969 457.730469 C 350.078125 457.921875 349.601562 458.121094 349.132812 458.308594 C 348.667969 458.496094 348.210938 458.6875 347.75 458.871094 C 347.402344 459.019531 347.050781 459.15625 346.703125 459.296875 C 345.871094 459.632812 345.03125 459.96875 344.203125 460.300781 C 344.191406 460.296875 344.183594 460.308594 344.167969 460.308594 C 342.96875 460.785156 341.773438 461.253906 340.574219 461.730469 C 339.378906 462.195312 338.15625 462.566406 336.949219 463.027344 C 335.75 463.488281 334.546875 463.9375 333.3125 464.308594 L 333.289062 464.316406 C 321.84375 469.074219 310.085938 472.828125 298.34375 476.601562 C 290.074219 479.269531 281.730469 481.671875 273.4375 484.183594 L 273.417969 484.191406 C 268.222656 485.765625 263.03125 487.339844 257.734375 488.519531 C 257.722656 488.523438 257.722656 488.523438 257.71875 488.523438 L 257.660156 488.539062 C 251.109375 490.53125 244.429688 492.074219 237.792969 493.675781 C 235.253906 494.285156 232.726562 494.921875 230.183594 495.496094 C 227.640625 496.074219 225.109375 496.664062 222.558594 497.203125 C 217.46875 498.28125 212.390625 499.34375 207.285156 500.269531 C 197.09375 502.125 186.875 503.660156 176.707031 504.449219 C 171.621094 504.839844 166.558594 505 161.550781 504.914062 C 156.550781 504.820312 151.605469 504.421875 146.890625 503.535156 C 142.191406 502.648438 137.679688 501.300781 133.945312 499.1875 C 130.203125 497.078125 127.355469 494.292969 125.734375 490.757812 C 124.078125 487.246094 123.691406 482.914062 124.226562 478.375 C 124.765625 473.824219 126.210938 469.136719 128.058594 464.542969 C 129.917969 459.933594 132.238281 455.410156 134.796875 450.984375 C 137.339844 446.546875 140.160156 442.21875 143.113281 437.949219 C 149.03125 429.425781 155.570312 421.230469 162.351562 413.214844 C 169.148438 405.210938 176.238281 397.390625 183.449219 389.65625 L 182.402344 388.53125 C 174.132812 395.164062 166.113281 402.152344 158.429688 409.523438 C 150.742188 416.894531 143.375 424.664062 136.546875 432.992188 C 129.765625 441.355469 123.425781 450.238281 118.566406 460.34375 C 116.167969 465.40625 114.15625 470.8125 113.121094 476.722656 C 112.609375 479.671875 112.363281 482.761719 112.582031 485.945312 C 112.789062 489.109375 113.480469 492.371094 114.734375 495.46875 " fill-opacity="1" fill-rule="nonzero"/></g><path fill="#191717" d="M 598.933594 449.421875 C 598.9375 449.445312 598.941406 449.457031 598.9375 449.464844 C 598.949219 449.484375 598.953125 449.5 598.957031 449.519531 L 599.101562 449.414062 C 599.042969 449.414062 598.988281 449.417969 598.933594 449.421875 " fill-opacity="1" fill-rule="nonzero"/><g clip-path="url(#3eedd2e09f)"><path fill="#191717" d="M 448.210938 380.296875 L 460.773438 388.078125 L 464.175781 390.183594 C 464.175781 390.183594 472.449219 395.308594 472.511719 395.347656 C 474.421875 396.527344 476.152344 398.035156 477.21875 400.035156 C 478.15625 401.796875 478.429688 403.777344 478.820312 405.707031 C 479.414062 408.691406 480.015625 411.679688 480.613281 414.660156 L 480.617188 414.683594 L 483.996094 431.515625 C 484.457031 433.777344 486.238281 434.625 487.996094 433.398438 C 489.746094 432.171875 491.242188 429.277344 491.292969 426.96875 L 491.710938 408.894531 L 491.707031 408.882812 L 491.953125 396.746094 L 509.527344 385.421875 L 510.808594 384.59375 L 510.824219 384.585938 L 560.851562 352.363281 L 561.289062 354.488281 L 561.289062 354.496094 L 561.308594 354.527344 L 561.492188 354.496094 L 564.660156 367.015625 L 564.679688 367.089844 L 581.359375 442.625 C 581.714844 444.199219 582.542969 445.246094 583.722656 444.886719 L 583.785156 444.871094 C 584.230469 444.734375 584.734375 444.515625 585.226562 444.175781 L 593.109375 438.652344 C 594.949219 437.375 596.417969 434.539062 596.34375 432.300781 L 595.679688 411.160156 C 596.238281 411.0625 596.632812 410.617188 597.125 410.265625 L 600.59375 407.847656 L 601.523438 407.199219 C 603.363281 405.917969 604.195312 403.761719 602.914062 401.925781 L 601.980469 400.589844 C 601.570312 400.003906 600.988281 399.511719 600.328125 399.164062 C 598.933594 398.421875 597.175781 398.300781 595.933594 399.167969 L 595.132812 399.722656 L 594.695312 381.300781 C 595.253906 381.203125 595.980469 381.242188 596.472656 380.902344 L 598.292969 379.628906 L 600.75 377.914062 C 602.578125 376.636719 603.050781 374.015625 601.769531 372.179688 L 600.84375 370.847656 C 600.007812 369.652344 598.449219 368.820312 596.960938 368.746094 C 596.160156 368.699219 595.386719 368.875 594.75 369.320312 L 594.085938 369.777344 L 593.496094 348.988281 L 593.46875 348.058594 L 593.050781 333.476562 L 592.992188 331.425781 L 618.269531 315.5625 L 618.46875 315.4375 C 624.253906 311.695312 633.542969 301.523438 636.34375 294.039062 C 637.300781 291.476562 637.5 289.226562 636.539062 287.660156 C 635.636719 286.195312 633.796875 285.460938 631.414062 285.261719 C 623.820312 284.613281 610.695312 289.382812 604.777344 293.214844 C 604.671875 293.28125 595.804688 299.929688 582.859375 309.683594 C 582.4375 310.003906 582.019531 310.324219 581.582031 310.648438 C 580.929688 311.140625 580.261719 311.644531 579.585938 312.152344 L 578.320312 311.636719 L 577.480469 311.296875 L 565.863281 306.558594 L 543.714844 297.535156 L 544.378906 297.078125 C 546.21875 295.796875 546.765625 293.292969 545.492188 291.460938 L 544.5625 290.125 C 543.28125 288.285156 541.019531 288.347656 539.1875 289.621094 L 534.914062 292.601562 C 534.421875 292.945312 533.800781 293.0625 533.511719 293.554688 L 515.988281 286.199219 L 516.78125 285.648438 C 518.613281 284.367188 519.257812 281.9375 517.976562 280.101562 L 517.042969 278.769531 C 515.769531 276.933594 513.015625 276.34375 511.183594 277.621094 L 506.773438 280.691406 C 506.28125 281.039062 505.902344 281.492188 505.617188 281.976562 L 485.988281 274.003906 C 483.917969 273.164062 480.613281 273.371094 478.785156 274.652344 L 470.898438 280.148438 C 469.0625 281.425781 469.203125 283.617188 471.082031 284.835938 L 533.492188 325.234375 L 546.058594 333.375 L 548.996094 335.277344 C 548.042969 336 547.082031 336.71875 546.128906 337.445312 C 519.902344 357.210938 492.792969 377.648438 483.414062 384.722656 L 472.480469 380.984375 L 460.101562 376.746094 L 454.996094 375 C 452.816406 374.253906 449.597656 374.644531 447.847656 375.863281 C 446.085938 377.089844 446.253906 379.085938 448.210938 380.296875 " fill-opacity="1" fill-rule="nonzero"/></g><path fill="#ffbd59" d="M 629.84375 228.398438 C 629.84375 228.621094 629.792969 228.816406 629.695312 228.988281 C 629.597656 229.152344 629.414062 229.285156 629.15625 229.382812 C 629.011719 229.4375 628.828125 229.480469 628.613281 229.507812 C 628.394531 229.535156 628.125 229.550781 627.808594 229.550781 L 627.210938 229.550781 L 627.210938 227.394531 L 628.117188 227.394531 C 628.410156 227.394531 628.65625 227.40625 628.855469 227.4375 C 629.046875 227.460938 629.207031 227.503906 629.332031 227.5625 C 629.519531 227.644531 629.652344 227.757812 629.726562 227.894531 C 629.804688 228.039062 629.84375 228.207031 629.84375 228.398438 Z M 629.710938 230.671875 C 630.289062 230.488281 630.726562 230.210938 631.015625 229.847656 C 631.324219 229.457031 631.480469 228.980469 631.480469 228.425781 C 631.480469 227.894531 631.351562 227.449219 631.097656 227.09375 C 630.839844 226.742188 630.476562 226.472656 630.007812 226.296875 C 629.765625 226.203125 629.472656 226.136719 629.132812 226.09375 C 628.796875 226.046875 628.429688 226.027344 628.042969 226.027344 L 625.613281 226.027344 L 625.613281 233.886719 L 627.210938 233.886719 L 627.210938 230.917969 L 628.027344 230.917969 L 630.113281 233.886719 L 632.039062 233.886719 L 629.710938 230.671875 " fill-opacity="1" fill-rule="nonzero"/><g clip-path="url(#96b61bc3e6)"><path fill="#ffbd59" d="M 628.636719 223.042969 C 624.828125 223.042969 621.734375 226.140625 621.734375 229.945312 C 621.734375 233.753906 624.828125 236.851562 628.636719 236.851562 C 632.445312 236.851562 635.542969 233.753906 635.542969 229.945312 C 635.542969 226.140625 632.445312 223.042969 628.636719 223.042969 Z M 628.636719 238.199219 C 627.523438 238.199219 626.441406 237.980469 625.425781 237.546875 C 624.445312 237.132812 623.5625 236.539062 622.804688 235.78125 C 622.046875 235.023438 621.453125 234.140625 621.035156 233.160156 C 620.605469 232.140625 620.386719 231.058594 620.386719 229.945312 C 620.386719 228.832031 620.605469 227.753906 621.035156 226.734375 C 621.453125 225.753906 622.046875 224.871094 622.804688 224.113281 C 623.5625 223.355469 624.445312 222.761719 625.425781 222.34375 C 626.441406 221.914062 627.523438 221.695312 628.636719 221.695312 C 629.75 221.695312 630.832031 221.914062 631.847656 222.34375 C 632.832031 222.761719 633.714844 223.355469 634.472656 224.113281 C 635.230469 224.871094 635.824219 225.753906 636.238281 226.734375 C 636.667969 227.753906 636.886719 228.832031 636.886719 229.945312 C 636.886719 231.058594 636.667969 232.140625 636.238281 233.160156 C 635.824219 234.140625 635.230469 235.023438 634.472656 235.78125 C 633.714844 236.539062 632.832031 237.132812 631.847656 237.546875 C 630.832031 237.980469 629.75 238.199219 628.636719 238.199219 " fill-opacity="1" fill-rule="nonzero"/></g><g fill="#ffbd59" fill-opacity="1"><g transform="translate(168.208734, 406.051817)"><g><path d="M 52.40625 -29.359375 L 52.40625 -41.992188 C 52.40625 -46.089844 50.847656 -50.027344 47.894531 -52.898438 C 45.023438 -55.769531 41.089844 -57.410156 36.988281 -57.410156 L 1.640625 -57.410156 C 2.542969 -56.671875 3.117188 -54.867188 3.117188 -50.601562 L 3.117188 -6.808594 C 3.117188 -2.542969 2.542969 -0.738281 1.640625 0 L 23.128906 0 C 22.144531 -0.738281 21.652344 -2.542969 21.652344 -6.808594 L 21.652344 -16.566406 Z M 21.652344 -57.164062 L 27.226562 -57.164062 C 29.03125 -57.164062 30.671875 -56.507812 31.984375 -55.277344 C 33.214844 -54.046875 33.871094 -52.324219 33.871094 -50.601562 L 33.871094 -21.980469 L 21.652344 -16.8125 Z M 21.652344 -57.164062 "/></g></g></g><g fill="#ffbd59" fill-opacity="1"><g transform="translate(222.251887, 406.051817)"><g><path d="M 54.457031 -7.710938 L 51.503906 -18.617188 L 48.058594 -31.082031 C 44.039062 -45.925781 25.097656 -50.355469 14.925781 -38.792969 C 18.78125 -43.136719 25.996094 -41.417969 27.554688 -35.757812 L 29.769531 -27.882812 L 28.621094 -27.882812 C 28.621094 -27.882812 0.902344 -28.210938 1.722656 -12.546875 C 2.625 3.609375 25.589844 6.070312 32.722656 -8.449219 C 33.378906 -9.757812 33.789062 -11.152344 33.953125 -12.628906 L 34.691406 -9.921875 C 36.496094 -3.035156 43.300781 1.148438 50.191406 -0.246094 C 53.882812 -1.066406 57 -3.363281 58.640625 -6.726562 C 57.738281 -5.003906 54.949219 -5.824219 54.457031 -7.710938 Z M 28.539062 -6.5625 C 28.292969 -6.480469 28.046875 -6.480469 27.800781 -6.480469 C 23.785156 -6.480469 20.421875 -9.59375 20.175781 -13.53125 C 19.765625 -19.847656 23.867188 -26.078125 29.769531 -27.636719 L 33.460938 -14.269531 C 33.953125 -12.546875 33.707031 -10.742188 32.722656 -9.265625 C 31.820312 -7.792969 30.261719 -6.808594 28.539062 -6.5625 Z M 28.539062 -6.5625 "/></g></g></g><g fill="#ffbd59" fill-opacity="1"><g transform="translate(282.527641, 406.051817)"><g><path d="M 37.972656 -29.03125 C 28.292969 -33.050781 14.1875 -36.414062 14.1875 -40.84375 C 14.1875 -44.121094 20.667969 -46.5 28.292969 -46.417969 C 41.007812 -46.171875 47.320312 -33.625 47.320312 -33.625 L 46.417969 -46.335938 L 27.308594 -46.664062 C 15.007812 -46.664062 6.152344 -42.320312 3.609375 -35.511719 C 3.117188 -34.28125 2.871094 -32.96875 2.871094 -31.574219 C 2.871094 -21.324219 13.203125 -17.550781 19.273438 -15.171875 C 30.507812 -10.824219 43.21875 -8.609375 43.300781 -3.117188 C 43.300781 0.410156 35.511719 1.804688 26.734375 1.722656 C 17.386719 1.558594 6.890625 -5.167969 3.691406 -13.859375 C 3.445312 -14.679688 3.28125 -15.089844 3.28125 -15.089844 L 1.640625 -2.542969 L 11.234375 -0.410156 C 17.304688 0.984375 22.390625 2.050781 29.769531 2.132812 C 44.613281 2.214844 54.949219 -3.773438 55.113281 -12.875 C 55.113281 -21.898438 43.300781 -26.816406 37.972656 -29.03125 Z M 37.972656 -29.03125 "/></g></g></g><g fill="#ffbd59" fill-opacity="1"><g transform="translate(339.277059, 406.051817)"><g><path d="M 37.972656 -29.03125 C 28.292969 -33.050781 14.1875 -36.414062 14.1875 -40.84375 C 14.1875 -44.121094 20.667969 -46.5 28.292969 -46.417969 C 41.007812 -46.171875 47.320312 -33.625 47.320312 -33.625 L 46.417969 -46.335938 L 27.308594 -46.664062 C 15.007812 -46.664062 6.152344 -42.320312 3.609375 -35.511719 C 3.117188 -34.28125 2.871094 -32.96875 2.871094 -31.574219 C 2.871094 -21.324219 13.203125 -17.550781 19.273438 -15.171875 C 30.507812 -10.824219 43.21875 -8.609375 43.300781 -3.117188 C 43.300781 0.410156 35.511719 1.804688 26.734375 1.722656 C 17.386719 1.558594 6.890625 -5.167969 3.691406 -13.859375 C 3.445312 -14.679688 3.28125 -15.089844 3.28125 -15.089844 L 1.640625 -2.542969 L 11.234375 -0.410156 C 17.304688 0.984375 22.390625 2.050781 29.769531 2.132812 C 44.613281 2.214844 54.949219 -3.773438 55.113281 -12.875 C 55.113281 -21.898438 43.300781 -26.816406 37.972656 -29.03125 Z M 37.972656 -29.03125 "/></g></g></g><g fill="#ffbd59" fill-opacity="1"><g transform="translate(396.026488, 406.051817)"><g><path d="M 47.8125 -14.433594 C 44.203125 -10.90625 39.203125 -9.183594 34.199219 -9.921875 C 25.75 -11.070312 19.601562 -18.453125 19.601562 -26.980469 L 19.601562 -28.539062 L 49.78125 -28.539062 C 47.320312 -39.121094 37.890625 -46.664062 27.0625 -46.664062 L 24.933594 -46.664062 C 12.054688 -46.664062 1.640625 -36.25 1.640625 -23.292969 C 1.640625 -10.414062 12.054688 0 24.933594 0 C 31.492188 -0.0820312 37.808594 -2.542969 42.808594 -6.808594 C 46.089844 -9.59375 48.550781 -13.121094 49.945312 -17.140625 C 49.371094 -16.15625 48.632812 -15.253906 47.8125 -14.433594 Z M 19.601562 -40.269531 C 19.601562 -43.628906 22.308594 -46.335938 25.75 -46.335938 C 29.113281 -46.335938 31.820312 -43.628906 31.820312 -40.269531 L 31.820312 -28.867188 L 19.601562 -28.867188 Z M 19.601562 -40.269531 "/></g></g></g><g fill="#ffbd59" fill-opacity="1"><g transform="translate(447.609402, 406.051817)"><g><path d="M 12.382812 -48.140625 C 14.84375 -48.140625 17.140625 -49.125 18.945312 -50.847656 C 20.667969 -52.570312 21.652344 -54.949219 21.652344 -57.410156 C 21.652344 -62.492188 17.46875 -66.675781 12.382812 -66.675781 C 7.21875 -66.675781 3.117188 -62.492188 3.117188 -57.410156 C 3.117188 -52.242188 7.21875 -48.140625 12.382812 -48.140625 Z M 21.652344 -6.808594 L 21.652344 -45.105469 C 19.191406 -43.875 16.484375 -42.972656 13.777344 -42.648438 C 6.316406 -41.664062 3.117188 -45.679688 3.117188 -45.679688 L 3.117188 -6.808594 C 3.117188 -2.542969 2.542969 -0.738281 1.640625 0 L 23.128906 0 C 22.144531 -0.738281 21.652344 -2.542969 21.652344 -6.808594 Z M 21.652344 -6.808594 "/></g></g></g><g fill="#ffbd59" fill-opacity="1"><g transform="translate(472.375765, 406.051817)"><g><path d="M 27.636719 -46.664062 L 24.933594 -46.664062 C 12.054688 -46.664062 1.640625 -36.167969 1.640625 -23.292969 C 1.640625 -10.414062 12.054688 0 24.933594 0 L 27.636719 0 C 40.515625 0 51.011719 -10.414062 51.011719 -23.292969 C 51.011719 -36.167969 40.515625 -46.664062 27.636719 -46.664062 Z M 32.476562 -6.398438 C 32.476562 -3.035156 29.6875 -0.246094 26.324219 -0.246094 C 22.882812 -0.246094 20.175781 -3.035156 20.175781 -6.398438 L 20.175781 -40.1875 C 20.175781 -43.628906 22.882812 -46.335938 26.324219 -46.335938 C 29.6875 -46.335938 32.476562 -43.628906 32.476562 -40.1875 Z M 32.476562 -6.398438 "/></g></g></g><g fill="#ffbd59" fill-opacity="1"><g transform="translate(525.024788, 406.051817)"><g><path d="M 37.972656 -29.03125 C 28.292969 -33.050781 14.1875 -36.414062 14.1875 -40.84375 C 14.1875 -44.121094 20.667969 -46.5 28.292969 -46.417969 C 41.007812 -46.171875 47.320312 -33.625 47.320312 -33.625 L 46.417969 -46.335938 L 27.308594 -46.664062 C 15.007812 -46.664062 6.152344 -42.320312 3.609375 -35.511719 C 3.117188 -34.28125 2.871094 -32.96875 2.871094 -31.574219 C 2.871094 -21.324219 13.203125 -17.550781 19.273438 -15.171875 C 30.507812 -10.824219 43.21875 -8.609375 43.300781 -3.117188 C 43.300781 0.410156 35.511719 1.804688 26.734375 1.722656 C 17.386719 1.558594 6.890625 -5.167969 3.691406 -13.859375 C 3.445312 -14.679688 3.28125 -15.089844 3.28125 -15.089844 L 1.640625 -2.542969 L 11.234375 -0.410156 C 17.304688 0.984375 22.390625 2.050781 29.769531 2.132812 C 44.613281 2.214844 54.949219 -3.773438 55.113281 -12.875 C 55.113281 -21.898438 43.300781 -26.816406 37.972656 -29.03125 Z M 37.972656 -29.03125 "/></g></g></g></svg>